<?xml version="1.0" encoding="utf-8" ?>
<svg xmlns="http://www.w3.org/2000/svg" xmlns:xlink="http://www.w3.org/1999/xlink" width="610" height="610">
	<path fill="#FD95D7" d="M243.219 189.292C241.712 188.913 240.473 188.52 239.623 187.127C238.482 185.256 238.314 181.546 238.908 179.498C239.391 177.835 240.424 177.098 241.918 176.345C245.944 174.315 250.784 173.422 255.099 172.088C261.675 170.054 268.475 167.19 275.371 166.359C276.541 166.218 277.645 166.615 278.736 166.986Q279.219 167.15 279.699 167.321C280.764 170.72 280.7 174.278 281.651 177.672C283.388 178.665 285.306 179.605 286.861 180.861Q287.488 185.459 287.424 190.099C297.939 190.509 308.464 190.031 318.981 190.269C318.97 187.518 318.864 184.773 319.448 182.067L319.703 181.78C320.766 180.596 321.986 179.652 323.083 178.521C325.79 175.729 325.803 172.185 326.679 168.606C329.077 166.884 330.308 166.068 333.357 166.583C339.946 167.696 345.824 170.398 352.088 172.529C356.935 174.179 362.446 175.601 367.48 176.562C369.377 189.512 362.464 186.157 362.832 196.923C362.877 198.246 362.848 199.806 363.171 201.09C364.007 204.414 370.297 209.163 372.841 211.324C375.054 213.204 381.459 219.2 383.562 220.45C383.727 220.548 383.906 220.624 384.078 220.711C389.459 218.903 401.908 207.025 407.25 209.717C409.861 211.032 415.696 216.6 417.778 218.916C418.095 220.508 418.451 222.101 418.678 223.708C420.738 225.181 428.312 232.726 429.115 234.898C428.917 235.843 428.521 236.538 427.999 237.347C426.754 239.275 416.072 253.027 414.833 253.857C414.723 253.931 414.61 253.998 414.5 254.07C412.943 255.089 412.347 255.541 412.006 257.437C411.362 261.025 411.783 265.056 411.966 268.685C414.762 269.076 416.013 270.28 417.902 272.291Q418.201 277.263 418.195 282.244C424.939 282.229 435.83 281.409 442.023 283.063C443.845 283.549 445.471 284.421 446.996 285.517C447.429 296.932 447.608 310.096 446.948 321.47C444.965 324.122 443.097 325.056 439.808 325.51C432.864 326.471 425.36 325.383 418.324 325.635C418.269 328.156 418.75 334.039 416.838 335.861C416.365 336.312 415.677 336.547 415.079 336.78C414.302 337.602 413.4 338.247 412.498 338.921C411.155 342.111 411.931 349.794 412.197 353.391C413.779 354.596 415.31 355.748 417.065 356.691L417.755 359.703C419.066 360.776 422.195 362.788 422.753 364.349C423.104 365.328 423.012 366.438 423.624 367.304C425.663 367.903 426.822 368.646 428.182 370.31C428.88 371.163 429.353 372.242 429.141 373.364C428.675 375.834 425.663 377.126 423.738 378.263C423.311 380.173 423.012 381.978 422.897 383.933C421.364 383.933 419.841 384.06 418.313 384.17C418.314 386.038 418.215 387.902 418.132 389.767C416.54 391.014 414.664 391.896 413.128 393.164C411.24 394.723 409.804 396.828 407.945 398.44C407.091 399.18 405.988 399.718 404.827 399.54C403.229 399.295 402.263 397.722 401.316 396.558C400.1 396.487 398.815 396.453 397.653 396.051C394.725 395.035 386.871 389.013 384.103 386.84C381.179 387.987 379.761 392.478 375.985 393.044C375.525 393.479 375.655 393.275 375.39 393.835C374.84 394.998 374.373 396.221 373.506 397.197C371.779 399.141 365.568 402.574 363.111 404.189Q363.163 411.143 363.292 418.095C364.47 418.551 366.17 419.279 367.047 420.215C368.715 421.995 368.524 425.233 368.359 427.516C368.299 428.354 368.242 429.671 367.628 430.323C366.286 431.75 358.725 433.92 356.533 434.456C354.579 434.934 350.806 434.907 349.354 436.203C348.092 437.33 333.231 441.685 331.22 441.764C329.883 441.816 328.226 441.687 327.226 440.682C324.867 438.309 325.228 432.504 325.176 429.327L322.227 428.818C321.296 428.017 320.501 427.124 319.681 426.212C319.091 423.491 319.013 420.688 318.952 417.915C308.391 418.244 297.77 418.122 287.2 418.269C287.385 420.908 287.434 423.481 287.242 426.121C285.276 427.578 283.568 428.713 281.146 429.306C280.999 433.323 281.13 437.428 278.734 440.847C272.126 442.642 273.106 440.48 267.545 439.007C265.168 438.378 262.507 438.237 260.063 437.942L256.937 435.135C254.776 435.025 252.402 435.071 250.291 434.586C245.685 433.529 244.174 432.02 238.663 431.457C238.786 429.34 238.533 427.219 238.69 425.108C238.937 421.8 240.634 419.854 243.052 417.795C243.297 413.185 243.204 408.607 243.006 403.999L242.106 403.15C239.894 401.046 237.079 399.961 234.74 398.058C233.021 396.659 232.019 394.501 230.343 393.022C229.671 392.918 228.767 392.848 228.15 392.57C226.478 391.816 223.968 388.384 222.575 387.003C222.286 386.97 222.065 386.929 221.767 386.967C220.75 387.096 219.797 388.843 219.009 389.52C217.02 391.23 214.272 391.429 212.572 393.586C212.347 393.872 212.132 394.167 211.894 394.442C210.432 396.133 208.885 395.97 206.863 396.248C205.33 396.458 204.972 398.516 203.985 399.528C203.413 400.116 202.793 400.404 201.959 400.364C200.93 400.315 199.937 399.727 199.159 399.097C197.316 397.605 195.845 395.598 194.253 393.845C192.523 391.94 190.601 390.193 188.722 388.437L188.017 384.408C183.345 382.843 184.619 381.178 182.077 378.141C181.499 377.452 180.428 377.162 179.706 376.618C178.463 375.682 178.284 374.166 178.186 372.732C178.546 371.809 178.988 371.059 179.583 370.265C181.494 367.72 183.948 365.427 185.981 362.94C187.922 360.566 189.575 357.814 191.671 355.594C192.394 354.829 193.256 354.258 194.141 353.697C194.584 348.766 194.447 343.93 194.219 338.997C191.664 338.821 190.458 337.885 188.447 336.427C188.444 336.382 188.443 336.336 188.438 336.291C188.068 332.802 188.24 329.157 188.232 325.643C182.948 326.244 171.66 326.109 166.333 325.73C164.495 325.6 161.39 325.243 160.203 323.637C159.427 322.587 159.236 320.515 159.119 319.226C158.726 314.888 159.046 310.323 159.052 305.955C159.06 299.731 158.443 292.803 159.53 286.692L160.434 286.01C161.715 285.047 162.705 283.942 163.764 282.752C171.624 281.315 180.177 282.008 188.152 282.098C188.169 279.004 188.378 275.941 188.599 272.857L188.81 272.634C188.928 272.512 189.05 272.393 189.166 272.269C190.661 270.664 192.223 269.66 194.076 268.506C194.46 267.28 194.434 265.738 194.457 264.457C194.488 262.743 194.786 256.136 193.808 255.122C193.283 255.086 192.225 255.129 191.791 254.839C190.812 254.185 188.832 250.461 187.973 249.294C186.566 247.385 184.915 245.656 183.533 243.732C183.168 243.223 182.923 242.679 182.743 242.082C182.718 241.999 182.698 241.913 182.676 241.828C180.945 240.724 178.871 239.386 178.21 237.324C177.797 236.037 178.147 234.783 178.808 233.653C179.543 232.394 185.017 225.882 186.219 224.933C186.744 224.518 187.497 224.34 188.133 224.168L188.617 218.434C193.526 217.352 194.937 212.325 198.63 209.865C199.612 209.211 200.98 208.911 202.105 208.575C207.996 212.305 214.004 215.119 219.453 219.576C220.068 220.079 220.847 220.906 221.676 220.823C226.053 220.388 240.471 206.093 243.577 202.177Q243.692 195.726 243.219 189.292ZM262.785 232.349C260.473 233.089 258.374 233.616 255.938 233.793L255.643 236.95C253.607 239.123 252.038 240.174 249.174 241.07L248.479 245.016C246.335 246.82 244.769 248.12 241.988 248.826C241.885 249.976 241.837 253.924 240.955 254.531C239.796 255.329 237.611 254.863 236.233 255.749C235.374 256.301 235.646 257.129 235.139 257.85C233.335 260.417 227.666 261.875 226.116 267.076C224.946 270.996 225.604 298.139 225.595 304.174L225.509 326.253C225.484 331.283 225.239 336.477 225.863 341.472C228.129 344.724 230.837 346.902 233.696 349.591C236.329 352.066 238.909 354.619 241.519 357.122L242.137 359.509C244.217 360.701 247.711 362.265 248.259 364.871C248.428 365.669 248.414 366.515 248.509 367.325L252.936 368.459C254.631 370.351 255.522 371.63 256.254 374.114C257.46 374.342 258.677 374.541 259.868 374.836C261.636 377.204 262.964 378.743 263.395 381.758C278.595 382.225 293.865 381.761 309.075 381.877Q320.334 382.008 331.593 381.918C335.075 381.888 338.853 382.118 342.289 381.614C342.791 380.874 342.955 380.03 343.439 379.318C344.762 377.374 347.957 375.6 350.035 374.545C350.791 373.386 351.552 372.033 352.521 371.046C353.922 369.618 355.771 368.561 357.089 367.064C358.557 365.397 359.215 363.223 360.834 361.602C360.912 361.523 360.986 361.44 361.066 361.363C362.047 360.419 363.425 360.462 364.428 359.758C366.067 358.608 363.128 353.292 368.554 353.036C369.313 353 370.543 353.185 370.837 352.328C372.054 348.784 379.351 344.544 380.61 340.35C380.81 339.683 380.715 338.738 380.706 338.04C380.415 322.526 380.547 306.966 380.593 291.449C380.616 283.696 381.174 275.522 380.43 267.823C377.551 263.387 373.076 260.693 370.314 256.279C369.832 255.51 366.195 254.355 364.977 252.698C364.21 251.654 364.149 250.54 364.345 249.302C364.412 248.878 364.437 249.139 364.176 248.615C363.186 248.545 362.204 248.551 361.212 248.556C359.435 246.396 357.652 244.647 357.038 241.85C356.797 240.754 354.798 240.55 353.834 240.148C352.676 239.665 351.583 238.221 350.726 237.314C350.58 236.174 350.433 235.09 350.11 233.985C349.072 233.925 348.074 233.913 347.171 233.345C344.95 231.947 343.2 229.22 342.617 226.725C323.355 225.889 303.885 226.42 284.607 226.533C279.674 226.562 274.748 226.708 269.817 226.77C267.81 226.795 265.773 226.411 263.81 226.889C263.079 227.526 263.182 227.846 263.038 228.781C262.985 229.974 262.955 231.166 262.785 232.349Z"/>
	<path fill="#3C9DF6" d="M243.219 189.292C241.712 188.913 240.473 188.52 239.623 187.127C238.482 185.256 238.314 181.546 238.908 179.498C239.391 177.835 240.424 177.098 241.918 176.345C245.944 174.315 250.784 173.422 255.099 172.088C261.675 170.054 268.475 167.19 275.371 166.359C276.541 166.218 277.645 166.615 278.736 166.986Q279.219 167.15 279.699 167.321C280.764 170.72 280.7 174.278 281.651 177.672C283.388 178.665 285.306 179.605 286.861 180.861Q287.488 185.459 287.424 190.099C297.939 190.509 308.464 190.031 318.981 190.269C318.97 187.518 318.864 184.773 319.448 182.067L319.703 181.78C320.766 180.596 321.986 179.652 323.083 178.521C325.79 175.729 325.803 172.185 326.679 168.606C329.077 166.884 330.308 166.068 333.357 166.583C339.946 167.696 345.824 170.398 352.088 172.529C356.935 174.179 362.446 175.601 367.48 176.562C369.377 189.512 362.464 186.157 362.832 196.923C362.877 198.246 362.848 199.806 363.171 201.09C364.007 204.414 370.297 209.163 372.841 211.324C375.054 213.204 381.459 219.2 383.562 220.45C383.727 220.548 383.906 220.624 384.078 220.711C389.459 218.903 401.908 207.025 407.25 209.717C409.861 211.032 415.696 216.6 417.778 218.916C418.095 220.508 418.451 222.101 418.678 223.708C420.738 225.181 428.312 232.726 429.115 234.898C428.917 235.843 428.521 236.538 427.999 237.347C426.754 239.275 416.072 253.027 414.833 253.857C414.723 253.931 414.61 253.998 414.5 254.07C412.943 255.089 412.347 255.541 412.006 257.437C411.362 261.025 411.783 265.056 411.966 268.685C414.762 269.076 416.013 270.28 417.902 272.291Q418.201 277.263 418.195 282.244C424.939 282.229 435.83 281.409 442.023 283.063C443.845 283.549 445.471 284.421 446.996 285.517C447.429 296.932 447.608 310.096 446.948 321.47C444.965 324.122 443.097 325.056 439.808 325.51C432.864 326.471 425.36 325.383 418.324 325.635C418.269 328.156 418.75 334.039 416.838 335.861C416.365 336.312 415.677 336.547 415.079 336.78C413.017 336.436 381.715 337.627 380.706 338.04C380.415 322.526 380.547 306.966 380.593 291.449C380.616 283.696 381.174 275.522 380.43 267.823C377.551 263.387 373.076 260.693 370.314 256.279C369.832 255.51 366.195 254.355 364.977 252.698C364.21 251.654 364.149 250.54 364.345 249.302C364.412 248.878 364.437 249.139 364.176 248.615C363.186 248.545 362.204 248.551 361.212 248.556C359.435 246.396 357.652 244.647 357.038 241.85C356.797 240.754 354.798 240.55 353.834 240.148C352.676 239.665 351.583 238.221 350.726 237.314C350.58 236.174 350.433 235.09 350.11 233.985C349.072 233.925 348.074 233.913 347.171 233.345C344.95 231.947 343.2 229.22 342.617 226.725C323.355 225.889 303.885 226.42 284.607 226.533C279.674 226.562 274.748 226.708 269.817 226.77C267.81 226.795 265.773 226.411 263.81 226.889C263.079 227.526 263.182 227.846 263.038 228.781C263.064 227.935 263.294 226.208 262.81 225.516C262.102 224.506 260.727 223.981 259.973 222.977C258.685 221.266 258.047 218.765 257.004 216.868C256.315 215.615 255.37 214.497 254.493 213.373C251.667 209.752 250.845 207.004 250.103 202.512C247.932 202.165 245.762 201.722 243.577 202.177Q243.692 195.726 243.219 189.292Z"/>
	<path fill="#FCD1E3" d="M303.163 5.01035L322.491 5.01101C326.104 5.01194 330.524 4.5566 334.021 5.38084C336.911 6.06189 338.498 9.23706 341.28 9.62678C341.724 9.68906 342.169 9.77393 342.613 9.84205C343.288 10.5897 343.302 11.2494 343.377 12.2455C343.798 17.8286 343.44 23.6637 343.414 29.266Q343.453 41.9673 343.349 54.6683C346.618 54.6705 350.176 55.9307 353.352 56.7234Q361.974 58.876 370.521 61.3071C377.649 63.3747 385.273 66.2186 392.705 66.6564C392.912 64.8335 393.073 63.0035 393.522 61.2208C394.36 60.5379 395.063 59.8778 395.764 59.0522C396.463 58.2292 396.621 58.1964 397.577 57.8659C398.286 57.6207 398.413 57.5405 398.662 56.8815C399.979 53.4021 398.967 51.0517 402.311 48.4903C402.761 46.8051 403.192 43.4568 404.945 42.618C405.695 42.2592 406.749 42.2379 407.57 42.1531C407.745 40.3164 408.053 38.7281 408.597 36.9614C410.166 35.5939 412.003 34.3416 413.461 32.8898C414.388 31.9658 415.591 29.798 416.609 29.2375C417.123 28.954 417.942 28.9887 418.516 29.0204C420.398 29.1243 422.344 29.3085 424.208 29.5717C427.314 32.86 431.001 34.0101 434.834 36.168C436.868 37.3127 438.688 38.771 440.74 39.8966C442.198 40.6963 445.145 41.8274 446.137 43.0869C446.535 43.5923 446.712 44.3528 446.885 44.9622C448.596 45.2713 450.732 45.4495 452.307 46.1805C454 46.9662 454.809 48.8845 456.41 49.8411C459.849 51.8954 470.512 56.3909 472.464 59.2077C472.838 59.7479 473.114 60.3842 473.384 60.9792C476.819 61.8446 481.008 63.3083 482.849 66.5703C484.369 69.2632 483.918 72.9088 483.671 75.867L479.403 77.1083C479.294 79.8187 479.292 82.5856 478.905 85.2719L473.273 86.9945C473.12 89.6245 473.365 93.6163 471.205 95.4773C470.716 95.8993 470.075 96.2032 469.501 96.4957C467.677 102.456 464.405 102.63 463.187 108.801C472.273 116.974 480.746 125.812 489.43 134.404C492.687 137.627 495.786 141.413 499.379 144.222C502.383 141.975 505.819 140.321 509.005 138.333C516.072 133.922 527.882 125.592 535.247 123.073C537.441 122.323 540.157 122.466 542.439 122.723L543.521 126.998C544.744 127.415 547.461 127.823 548.129 128.718C548.348 130.001 548.085 136.408 548.839 136.972C549.903 137.768 551.261 138.045 552.38 138.907C552.798 140.829 553.041 142.674 553.183 144.636C554.59 144.718 556.163 144.677 557.264 145.702C559.09 147.4 558.284 151.583 558.262 153.876C560.326 153.785 562.253 153.976 564.238 154.568C564.534 158.529 564.565 162.482 564.552 166.453C566.698 166.622 568.83 167.01 570.967 167.157Q571.065 172.728 571.328 178.294C573.174 179.145 574.28 179.992 576.327 179.433C577.452 181.017 577.271 191.871 577.042 194.258C569.571 197.417 563.069 202.456 556.314 206.874C553.477 208.73 550.479 210.349 547.613 212.164C545.134 213.733 542.67 215.944 539.983 217.074C540.034 219.417 539.782 222.642 540.673 224.834C541.563 227.023 542.999 228.802 543.509 231.174C543.971 233.318 543.61 235.604 543.888 237.782C545.337 238.557 547.452 239.253 548.084 240.884C548.587 242.183 548.366 249.238 548.473 251.215C549.816 252.48 551.205 253.718 552.415 255.113C552.633 257.66 552.758 260.14 552.531 262.692Q567.044 262.81 581.558 262.725C586.596 262.703 592.42 262.043 597.328 263.058C597.534 264.321 597.712 265.587 598.045 266.825Q600.052 268.156 602.078 269.457C602.575 273.444 602.313 277.65 602.318 281.669L602.332 302.666L602.329 325.297C602.325 329.425 602.573 333.76 602.139 337.857C599.469 339.816 597.929 341.588 596.15 344.376C590.426 345.429 584.015 344.916 578.196 344.923C569.751 344.933 561.26 345.101 552.819 344.829C552.778 347.466 552.845 350.154 552.658 352.784C551.496 354.013 550.329 355.502 548.705 356.101C545.67 355.538 542.013 355.727 538.904 355.61L538.818 348.047L530.611 347.761Q530.423 343.774 530.139 339.793C527.042 339.851 523.936 339.821 520.838 339.833C520.701 337.364 520.764 334.876 520.768 332.404C517.898 332.419 515.003 332.651 512.135 332.79C512.386 330.185 512.157 327.807 511.796 325.23Q506.593 325.157 501.39 325.247C501.505 323.368 501.761 321.337 501.636 319.464C501.578 318.585 501.313 317.606 500.595 317.048C498.873 315.706 494.921 316.858 492.975 317.194C492.988 314.225 493.585 296.702 492.71 295.247C492.708 294.479 492.733 293.689 492.671 292.925C492.658 292.762 492.549 291.466 492.455 291.372C491.429 290.341 488.183 290.712 486.602 289.063C484.362 286.725 485.235 274.324 485.177 270.606C483.644 270.547 482.746 270.596 481.64 269.422C481.012 268.755 480.361 268.131 479.692 267.505C477.854 261.931 478.631 254.618 478.616 248.778C477.308 248.761 475.687 248.953 474.585 248.136C473.928 247.649 473.273 247.241 472.566 246.83C471.899 247.132 472.211 247.134 471.64 246.969C470.473 243.922 471.089 231.032 471.037 227.091C468.597 227.254 466.088 226.9 463.656 226.688C462.392 219.893 463.209 211.946 463.307 205.019C461.136 205.006 459.812 204.945 458.031 203.565C456.069 202.047 455.357 200.026 455.091 197.664L450.62 197.511C448.85 194.79 447.145 194.309 446.944 190.742L446.925 190.362C446.241 189.782 443.026 189.767 441.928 189.607C440.825 188.461 439.734 187.769 438.287 187.117L438.03 182.639C436.604 182.58 435.242 182.346 433.839 182.106C432.004 180.014 431.015 178.559 430.492 175.796C427.833 175.634 425.205 175.437 422.561 175.09C422.207 172.806 421.965 170.622 422.073 168.309C420.513 168.297 418.955 168.207 417.397 168.134C417.284 168.034 417.169 167.936 417.058 167.835C414.546 165.553 414.085 163.14 413.971 159.917C410.324 159.886 406.691 159.879 403.054 159.568C402.727 156.775 402.438 154.042 402.425 151.223C401.373 151.265 400.307 151.326 399.254 151.299C397.725 151.261 396.041 150.903 394.967 149.731C393.417 148.041 393.66 145.806 393.691 143.682C391.797 143.703 389.073 144.075 387.448 143.01C385.636 141.823 385.237 138.526 384.863 136.534C383.208 136.568 380.5 136.941 379.122 135.872C377.565 134.663 377.902 131.565 377.858 129.798C370.681 130.005 363.455 129.708 356.273 129.719L303.272 129.731C302.92 129.025 302.893 128.286 302.882 127.513C302.781 120.757 302.983 113.981 302.969 107.221L302.896 48.798L302.916 20.4139C302.931 15.3373 302.63 10.0448 303.163 5.01035Z"/>
	<path fill="#FD95D7" d="M270.835 5.18961C281.515 4.50311 292.464 4.96772 303.163 5.01035C302.63 10.0448 302.931 15.3373 302.916 20.4139L302.896 48.798L302.969 107.221C302.983 113.981 302.781 120.757 302.882 127.513C302.893 128.286 302.92 129.025 303.272 129.731L259.265 129.544C249.026 129.533 238.549 129.333 228.333 130.036C228.424 131.793 228.592 134.614 227.377 136.028C226.936 136.54 226.284 136.712 225.63 136.685C224.392 136.635 223.315 136.197 222.118 136.715C219.897 138.753 221.467 140.182 216.39 143.466C215.24 143.555 213.538 143.419 212.605 144.067C211.716 146.657 211.795 149.187 209.012 150.554C207.291 151.4 205.698 151.571 203.818 151.477C203.812 153.643 204.276 157.358 202.373 158.865C200.583 160.283 195.339 160.003 192.976 160.069C192.867 162.03 193.104 165.961 191.432 167.23C189.841 168.439 186.023 168.268 184.029 168.408C184.046 170.462 183.991 172.37 183.573 174.39C180.975 174.989 178.394 175.652 175.727 175.847C175.47 178.313 174.863 179.668 173.444 181.683C172.03 182.032 169.08 182.265 168.03 183.046C167.419 185.1 166.907 186.903 164.89 188.02C163.311 188.894 161.193 189.353 159.408 189.289C159.292 191.677 159.224 194.072 158.826 196.433C156.157 197.177 153.726 197.767 150.92 197.575C150.69 199.865 150.66 201.838 148.738 203.418C147.231 204.657 144.833 204.955 142.938 205.018C143.006 207.332 143.711 224.524 142.634 225.532C141.059 227.005 137.028 227.214 134.922 227.278C135.244 229.675 135.412 245.67 134.617 246.929C133.556 248.61 128.731 248.055 127.926 249.393C127.016 250.904 127.233 263.774 127.219 266.369C125.951 268.185 124.609 269.957 122.308 270.412C121.792 270.514 121.267 270.575 120.745 270.634C120.762 274.579 121.324 283.41 120.684 286.703C120.459 287.859 120.014 288.837 119.16 289.659C117.647 291.115 115.606 291.115 113.622 291.144C113.402 292.452 113.416 293.856 113.34 295.183C104.602 293.586 106.642 291.58 101.225 286.649C99.4464 285.03 97.468 284.139 95.317 283.12L94.3207 279.083C91.328 277.753 88.2211 276.757 85.283 275.292C84.1614 273.063 83.6031 270.714 83.0591 268.294Q78.8169 267.81 74.5684 267.383C74.3831 266.326 74.1935 265.251 73.883 264.223C72.6213 260.045 63.1641 253.977 59.1741 251.956C58.7723 251.752 58.4662 251.604 58.1065 251.319C57.6993 250.997 57.7398 250.151 57.6677 249.642C57.7357 247.354 57.8086 245.095 58.0996 242.823C59.3687 241.235 60.7789 239.741 62.133 238.225C62.5263 236.038 62.6603 233.821 63.19 231.654C64.655 225.66 66.1823 223.5 66.1767 216.758C63.0246 215.122 60.181 212.647 57.1705 210.739C50.4701 206.494 36.8303 199.324 31.6917 194.089C29.9297 192.294 29.3699 190.466 29.4651 187.939C29.6188 183.858 31.7171 180.562 34.5947 177.849Q34.8435 174.384 35.2074 170.929C37.2722 168.833 38.6075 166.716 41.6139 165.991Q41.4634 162.187 41.5831 158.381C43.7934 156.622 44.9845 154.464 47.6839 153.287C47.7836 152.106 47.779 150.601 48.2083 149.498C49.6764 145.725 54.8459 140.742 57.0593 136.588C57.9603 134.897 57.7859 132.843 58.9098 131.237C60.1765 129.427 65.3106 123.311 67.3279 123.005C73.0005 122.143 92.7242 135.784 98.0147 139.119C100.735 140.834 103.654 142.199 106.241 144.102C117.334 136.26 125.651 124.695 135.746 115.707C137.764 113.91 140.257 113.007 142.306 111.311C142.386 111.245 142.465 111.176 142.545 111.108C142.851 109.999 143.291 108.928 143.699 107.853L142.575 103.783Q141.203 102.711 140.023 101.43Q138.844 100.15 137.887 98.6953C135.739 95.4479 134.826 91.5423 132.851 88.2063C129.843 83.1243 124.68 77.7652 122.875 72.1472C122.375 70.588 122.244 68.6958 123.071 67.2261C123.747 66.0261 124.724 64.7459 125.872 63.967C127.724 62.7093 129.972 62.0709 131.869 60.8826C133.967 59.5679 135.72 57.2759 137.908 56.1833C139.706 55.2856 141.648 54.8984 143.389 53.8313L158.692 44.6015C160.182 43.6889 161.551 42.4958 163.041 41.5512C166.956 39.0679 180.416 30.5994 184.396 29.5511C186.224 29.0697 189.182 28.8619 190.867 29.8718C194.599 32.1091 197.576 37.5451 198.645 41.6046C199.72 42.0774 200.758 42.6394 201.802 43.1758C202.589 44.3172 208.068 55.9819 208.535 57.5049C209.648 57.7465 211.1 57.9933 211.931 58.8282C213.84 60.7459 213.455 64.5907 213.549 67.1341C216.89 66.6714 220.302 65.4563 223.577 64.604C231.745 62.478 239.835 60.1215 247.984 57.9336C252.835 56.6313 257.737 55.1798 262.72 54.5009L262.649 18.3538C262.674 8.41724 264.775 11.3532 270.665 5.36804C270.723 5.30946 270.779 5.24909 270.835 5.18961Z"/>
	<path fill="#FD95D7" d="M492.71 295.247C493.585 296.702 492.988 314.225 492.975 317.194C494.921 316.858 498.873 315.706 500.595 317.048C501.313 317.606 501.578 318.585 501.636 319.464C501.761 321.337 501.505 323.368 501.39 325.247Q506.593 325.157 511.796 325.23C512.157 327.807 512.386 330.185 512.135 332.79C515.003 332.651 517.898 332.419 520.768 332.404C520.764 334.876 520.701 337.364 520.838 339.833C523.936 339.821 527.042 339.851 530.139 339.793Q530.423 343.774 530.611 347.761L538.818 348.047L538.904 355.61C542.013 355.727 545.67 355.538 548.705 356.101C547.868 360.745 548.538 365.578 548.13 370.25C546.869 370.411 545.613 370.59 544.342 370.654C544.082 373.04 543.914 375.546 543.25 377.858C541.805 382.898 539.802 385.622 540.105 391.196L540.429 391.466C544.791 395.041 550.139 397.691 554.975 400.596C560.302 403.798 565.496 407.251 570.795 410.49C572.279 411.398 575.496 412.612 576.47 413.917C576.989 414.613 577.166 415.87 577.255 416.707C577.583 419.78 577.972 425.913 575.86 428.322C575.104 429.183 573.205 430.389 572.023 430.407C571.538 430.414 571.441 430.377 571.004 430.296C570.976 433.179 571.369 436.922 570.673 439.697C570.648 440.127 570.777 440.458 570.381 440.725C569.297 441.456 566.108 441.481 564.703 441.665C564.614 444.349 564.6 447.06 564.349 449.733C563.53 450.423 559.255 453.291 559.05 453.541C558.695 453.973 558.5 454.652 558.428 455.201C558.255 456.528 558.349 457.885 558.181 459.215C556.699 460.874 555.432 462.146 553.385 463.118C553.053 464.884 552.764 466.606 552.623 468.398C551.116 469.512 549.804 470.823 548.461 472.124C548.326 473.931 548.498 477.761 547.49 479.229C542.877 481.174 543.802 481.483 541.116 485.097C538.561 485.18 536.448 484.919 534.01 484.111C525.874 481.415 513.293 472.276 505.752 467.628C503.6 466.302 501.183 465.572 499.008 464.229C492.161 470.583 485.635 477.247 478.93 483.745C474.245 488.285 468.642 493.049 464.551 498.069C463.96 498.794 463.521 499.581 463.481 500.543C463.449 501.303 463.697 502.011 464.088 502.65C465.094 504.292 466.727 505.473 467.824 507.045C469.492 509.434 473.08 516.859 473.803 519.626C475.8 520.525 477.236 521.86 478.81 523.35C479.12 525.552 479.334 527.843 479.911 529.989C481.752 531.824 484.042 533.839 483.962 536.686C483.884 539.439 481.611 541.653 479.659 543.353C473.614 548.618 463.408 553.964 456.344 558.112C453.668 559.683 451.184 561.553 448.491 563.109C444.609 565.353 440.157 567.271 436.722 570.15C433.006 573.266 431.921 572.323 428.676 574.122C427.612 574.712 426.628 575.791 425.708 576.589C423.199 578.766 420.038 578.813 416.868 578.774C415.797 576.73 413.832 575.587 412.286 573.944C411.086 572.669 410.086 570.871 409.274 569.321C408.61 568.052 407.888 565.897 406.573 565.224C406.468 565.17 406.359 565.125 406.256 565.067C405.644 564.725 404.655 564.187 404.207 563.65C404.114 563.538 398.642 550.906 398.484 550.274C396.537 549.707 394.763 549.396 393.695 547.49C392.706 545.727 392.868 542.826 392.8 540.831C386.183 541.163 378.986 544.248 372.569 546.03C364.91 548.158 357.075 550.033 349.328 551.833C349.277 551.799 349.219 551.774 349.176 551.731C348.47 551.012 348.382 546.712 348.507 545.636C348.897 542.262 351.198 543.155 353.083 541.523C354.421 540.364 353.737 530.79 353.781 528.697C355.612 527.246 357.59 525.729 359.687 524.698C359.9 520.94 359.038 516.493 360.362 512.926C361.447 510.002 363.6 509.01 366.274 507.861C367.246 506.385 366.181 498.442 366.009 496.257C367.998 495.691 369.92 495.121 371.986 494.925C372.079 491.414 371.086 482.169 372.259 479.417C374.347 479.526 376.091 479.204 378.133 478.79C378.209 477.308 378.399 475.825 378.552 474.349C379.814 473.528 380.462 472.788 381.341 471.564C381.893 471.553 382.447 471.544 382.999 471.507C384.931 471.375 387.309 467.057 388.814 465.351C390.419 465.048 392.007 464.949 393.634 464.848C393.854 462.877 393.984 461.774 395.347 460.258C397.222 458.174 399.731 457.625 402.388 457.429C402.396 456.163 402.323 454.797 402.5 453.545C402.644 452.526 403.212 451.656 404.037 451.073C404.822 450.518 405.445 449.875 406.111 449.185C408.902 448.763 411.756 448.564 414.565 448.272C414.883 446.627 415.182 445.303 416.152 443.889C417.432 442.023 419.572 440.476 421.814 440.106L422.594 436.083C423.988 435.293 424.994 434.373 426.117 433.259C427.507 433.068 428.95 433.058 430.353 432.981C430.995 429.841 432.528 428.289 434.659 425.995C435.735 425.808 436.829 425.782 437.918 425.726L438.609 422.098C441.371 420.375 443.478 419.059 446.792 418.731L446.874 414.526C447.994 413.195 449.208 411.962 450.421 410.718C451.939 410.444 453.485 410.389 455.023 410.29C455.151 409.066 455.243 407.938 455.997 406.919C457.789 404.496 460.572 403.336 463.465 402.871C463.307 396.205 462.691 388.844 463.645 382.255C466.287 381.126 468.375 380.935 471.222 380.921C471.037 377.792 470.227 362.959 471.762 361.133C473.905 359.849 476.304 359.91 478.732 359.746C478.762 354.281 477.718 346.772 479.908 341.696C480.678 339.912 481.902 338.294 483.759 337.608C483.784 337.599 484.574 337.324 484.641 337.283C485.548 336.729 485.533 323.095 485.696 320.963Q486.337 320.285 486.985 319.614C488.958 317.576 489.747 316.956 492.634 316.908L492.71 295.247Z"/>
	<path fill="#3C9DF6" d="M53.6068 262.559C53.5819 261.266 53.4727 259.847 53.7639 258.582C54.4953 255.403 57.5376 252.856 57.6677 249.642C57.7398 250.151 57.6993 250.997 58.1065 251.319C58.4662 251.604 58.7723 251.752 59.1741 251.956C63.1641 253.977 72.6213 260.045 73.883 264.223C74.1935 265.251 74.3831 266.326 74.5684 267.383Q78.8169 267.81 83.0591 268.294C83.6031 270.714 84.1614 273.063 85.283 275.292C88.2211 276.757 91.328 277.753 94.3207 279.083L95.317 283.12C97.468 284.139 99.4464 285.03 101.225 286.649C106.642 291.58 104.602 293.586 113.34 295.183C113.416 293.856 113.402 292.452 113.622 291.144C113.768 293.045 113.768 294.895 113.711 296.8C113.782 303.466 113.942 310.145 113.8 316.81C116.438 316.984 118.117 317.925 120.472 319.028C120.806 325.1 120.591 331.177 120.97 337.251C123.978 337.459 124.994 338.095 127.059 340.264C127.446 346.684 127.473 353.111 127.856 359.527C130.042 359.697 132.507 360.034 133.982 361.869C135.811 364.144 135.333 377.399 135.314 380.839C136.712 380.815 138.023 380.841 139.414 381.022L139.676 381.294C140.326 381.962 140.954 382.539 141.702 383.096C142.615 383.776 142.818 384.091 142.982 385.223C143.649 389.822 143.311 397.838 143.066 402.651C145.286 403.133 147.682 403.873 148.993 405.866C149.459 406.575 150.866 409.605 151.352 409.864C151.647 410.021 152.001 410.019 152.326 410.092C155.248 410.747 156.76 411.409 159.021 413.455C159.346 415.128 159.602 416.761 159.76 418.458C162.572 418.992 165.01 419.803 166.698 422.296C167.354 423.265 167.731 424.293 168.093 425.398C170.66 425.972 173.327 426.309 174.828 428.734C175.546 429.895 175.659 431.156 175.829 432.485C178.422 432.832 180.923 433.173 182.664 435.378C183.569 436.525 184.025 437.613 184.304 439.03C184.331 439.171 184.363 439.312 184.391 439.453C184.408 439.538 184.421 439.623 184.437 439.708C187.001 439.973 189.527 440.167 191.236 442.388C192.497 444.027 192.912 446.15 193.249 448.143C195.854 448.287 198.491 448.478 201.047 449.027L203.288 451.572C203.668 453.529 203.87 455.396 203.958 457.388C205.653 457.531 207.241 457.75 208.901 458.131C211.329 460.282 212.12 461.417 212.986 464.623C215.405 466.431 219.923 464.061 221.604 471.563C216.281 472.95 210.333 473.001 204.867 473.712C204.805 475.221 204.758 476.719 204.567 478.219C200.678 478.472 196.722 478.617 192.858 479.139C192.648 480.484 192.389 481.836 192.309 483.195C187.754 483.373 183.054 483.359 178.542 484.047C178.788 485.269 179.097 486.508 179.212 487.749C174.661 487.942 170.037 488.307 165.486 488.162L165.585 493.831C162.475 494.177 144.273 494.7 143.036 496.103C142.542 496.664 142.456 497.459 142.303 498.168C136.909 492.626 131.156 487.463 125.635 482.057C121.018 477.535 112.323 466.899 106.761 464.569C103.233 465.86 100.418 467.779 97.2361 469.704C94.6441 471.273 91.9936 472.747 89.4216 474.348C83.2333 478.202 76.1438 483.681 68.836 484.935C67.458 485.172 66.0758 485.029 64.6945 484.905C62.6805 482.394 59.5121 479.653 58.21 476.735C57.5981 475.365 58.032 473.317 57.2016 472.109C56.6986 471.377 55.9474 470.742 55.3712 470.06C53.5932 467.953 52.8912 465.831 52.2615 463.217C52.1196 463.132 51.975 463.051 51.8357 462.962C50.5195 462.116 47.9213 458.519 47.6013 456.943C47.3936 455.92 47.4798 454.864 47.2381 453.847C47.0658 453.123 45.145 452.619 44.4178 452.138C41.2133 450.018 41.5588 446.49 40.7723 443.263C40.5493 442.348 40.3376 442.309 39.5713 441.878C39.047 441.582 38.4995 441.315 38.0142 440.955C34.9373 438.677 35.1539 434.724 34.5702 431.307C34.1632 430.818 34.3483 430.94 33.8533 430.672C33.4033 430.429 32.9371 430.214 32.511 429.927C30.6717 428.691 29.8022 426.743 29.5035 424.621C29.1497 422.107 28.7893 418.035 29.9693 415.742C32.3158 411.182 51.7836 400.358 57.2553 397.169C59.7397 395.72 64.0368 393.946 65.6609 391.621C67.4515 389.057 64.2803 381.31 63.4791 378.44C62.9011 376.369 62.4824 374.026 61.671 372.044C60.94 370.258 59.1996 368.99 58.6241 367.103C57.6364 363.864 57.8611 359.955 57.2344 356.57C55.7504 355.674 54.8404 354.312 53.799 352.96C53.4566 350.195 53.4119 347.455 53.3686 344.675C49.6589 344.849 45.7725 344.416 42.035 344.399Q29.0615 344.329 16.0915 344.638C12.8958 344.687 9.92594 344.256 7.59625 341.873C5.84942 340.087 4.68565 337.624 4.20005 335.189C3.49332 331.644 3.84556 327.61 3.83667 324.002Q3.80262 314.238 3.86766 304.474C4.34033 294.891 3.02241 285.025 3.92032 275.483C4.31112 271.33 6.42181 267.639 9.63812 265.004C10.3612 264.411 10.9569 263.82 11.5683 263.112L11.7989 262.841C25.6606 262.115 39.7102 262.881 53.6068 262.559Z"/>
	<path fill="#AEA3F0" d="M53.6068 262.559C53.5819 261.266 53.4727 259.847 53.7639 258.582C54.4953 255.403 57.5376 252.856 57.6677 249.642C57.7398 250.151 57.6993 250.997 58.1065 251.319C58.4662 251.604 58.7723 251.752 59.1741 251.956C63.1641 253.977 72.6213 260.045 73.883 264.223C74.1935 265.251 74.3831 266.326 74.5684 267.383Q78.8169 267.81 83.0591 268.294C83.6031 270.714 84.1614 273.063 85.283 275.292C88.2211 276.757 91.328 277.753 94.3207 279.083L95.317 283.12C97.468 284.139 99.4464 285.03 101.225 286.649C106.642 291.58 104.602 293.586 113.34 295.183C113.416 293.856 113.402 292.452 113.622 291.144C113.768 293.045 113.768 294.895 113.711 296.8C113.328 299.298 113.522 301.92 113.575 304.44C103.233 304.063 92.8257 304.313 82.4753 304.329L30.7112 304.325L12.573 304.339C9.7894 304.366 6.60935 304.771 3.86766 304.474C4.34033 294.891 3.02241 285.025 3.92032 275.483C4.31112 271.33 6.42181 267.639 9.63812 265.004C10.3612 264.411 10.9569 263.82 11.5683 263.112L11.7989 262.841C25.6606 262.115 39.7102 262.881 53.6068 262.559Z"/>
	<path fill="#AEA3F0" d="M221.604 471.563C223.372 471.375 225.438 471.316 226.887 472.537C228.169 473.616 228.485 475.297 228.547 476.882Q228.579 477.758 228.584 478.634C261.316 478.993 294.094 478.543 326.834 478.58C333.077 478.588 368.405 477.869 372.259 479.417C371.086 482.169 372.079 491.414 371.986 494.925C369.92 495.121 367.998 495.691 366.009 496.257C366.181 498.442 367.246 506.385 366.274 507.861C363.6 509.01 361.447 510.002 360.362 512.926C359.038 516.493 359.9 520.94 359.687 524.698C357.59 525.729 355.612 527.246 353.781 528.697C353.737 530.79 354.421 540.364 353.083 541.523C351.198 543.155 348.897 542.262 348.507 545.636C348.382 546.712 348.47 551.012 349.176 551.731C349.219 551.774 349.277 551.799 349.328 551.833C347.366 552.501 345.342 552.955 343.331 553.446L343.375 580.514C343.379 584.945 343.714 589.606 343.35 594.007C343.274 594.934 343.247 596.003 342.577 596.713C340.418 599.005 335.447 601.831 332.284 601.955C320.372 602.425 308.471 602.019 296.561 602.09C291.11 602.123 285.667 602.209 280.215 602.157C277.77 602.134 275.163 602.284 272.756 601.877C270.44 601.485 268.117 600.342 266.431 598.711C265.242 597.561 263.912 595.866 263.437 594.265C261.99 589.393 262.708 582.258 262.699 577.127Q262.735 565.252 262.577 553.378C258.475 552.679 254.424 551.35 250.418 550.226L229.15 544.283C224.114 542.926 218.593 542.41 213.728 540.637C213.623 542.426 213.421 544.138 213.109 545.902C211.746 547.577 210.583 549.178 208.57 550.116C208.339 551.065 208.121 552.108 207.714 553C206.806 554.986 205.308 556.715 204.313 558.674C203.656 559.968 203.426 561.586 202.543 562.729C201.327 564.303 199.551 564.938 198.699 566.831C197.334 569.865 192.514 576.815 189.614 578.321C187.891 579.217 184.555 578.91 182.765 578.335C180.49 577.604 178.913 575.556 176.867 574.379C172.321 571.761 167.832 569.009 163.274 566.427C155.708 562.141 127.411 547.287 124.411 540.838C122.332 536.37 124.692 531.703 126.424 527.58C126.963 526.296 127.489 524.62 128.322 523.528C129.368 522.157 130.935 521.091 131.838 519.627C134.107 515.946 135.492 511.752 138.062 508.21C139.541 506.172 142.141 504.256 142.925 501.852C143.342 500.572 143.058 499.564 142.441 498.416C142.396 498.333 142.349 498.251 142.303 498.168C142.456 497.459 142.542 496.664 143.036 496.103C144.273 494.7 162.475 494.177 165.585 493.831L165.486 488.162C170.037 488.307 174.661 487.942 179.212 487.749C179.097 486.508 178.788 485.269 178.542 484.047C183.054 483.359 187.754 483.373 192.309 483.195C192.389 481.836 192.648 480.484 192.858 479.139C196.722 478.617 200.678 478.472 204.567 478.219C204.758 476.719 204.805 475.221 204.867 473.712C210.333 473.001 216.281 472.95 221.604 471.563Z"/>
</svg>
